<mxfile host="app.diagrams.net" agent="Mozilla/5.0 (Windows NT 10.0; Win64; x64) AppleWebKit/537.36 (KHTML, like Gecko) Chrome/133.0.0.0 Safari/537.36" version="26.0.16">
  <diagram id="Ht1M8jgEwFfnCIfOTk4-" name="Page-1">
    <mxGraphModel dx="1674" dy="778" grid="1" gridSize="10" guides="1" tooltips="1" connect="1" arrows="1" fold="1" page="1" pageScale="1" pageWidth="1169" pageHeight="827" math="0" shadow="0">
      <root>
        <mxCell id="0" />
        <mxCell id="1" parent="0" />
        <mxCell id="Pc1lhnJoRWsY5sxy8zzw-80" style="edgeStyle=orthogonalEdgeStyle;rounded=0;orthogonalLoop=1;jettySize=auto;html=1;" edge="1" parent="1" source="UEzPUAAOIrF-is8g5C7q-109" target="Pc1lhnJoRWsY5sxy8zzw-78">
          <mxGeometry relative="1" as="geometry" />
        </mxCell>
        <mxCell id="UEzPUAAOIrF-is8g5C7q-109" value="data lake CLI" style="outlineConnect=0;gradientColor=none;fontColor=#545B64;strokeColor=none;fillColor=#879196;dashed=0;verticalLabelPosition=bottom;verticalAlign=top;align=center;html=1;fontSize=12;fontStyle=0;aspect=fixed;shape=mxgraph.aws4.illustration_desktop;pointerEvents=1;labelBackgroundColor=#ffffff;" parent="1" vertex="1">
          <mxGeometry x="70" y="73.5" width="100" height="91" as="geometry" />
        </mxCell>
        <mxCell id="UEzPUAAOIrF-is8g5C7q-116" value="Amazon S3" style="outlineConnect=0;fontColor=#232F3E;gradientColor=#60A337;gradientDirection=north;fillColor=#277116;strokeColor=#ffffff;dashed=0;verticalLabelPosition=bottom;verticalAlign=top;align=center;html=1;fontSize=12;fontStyle=0;aspect=fixed;shape=mxgraph.aws4.resourceIcon;resIcon=mxgraph.aws4.s3;labelBackgroundColor=#ffffff;" parent="1" vertex="1">
          <mxGeometry x="899.0000000000002" y="375" width="78" height="78" as="geometry" />
        </mxCell>
        <mxCell id="Pc1lhnJoRWsY5sxy8zzw-28" value="Horizontal Tree Layout" style="swimlane;startSize=20;horizontal=0;childLayout=treeLayout;horizontalTree=1;sortEdges=1;resizable=0;containerType=tree;fontSize=12;" vertex="1" parent="1">
          <mxGeometry x="410" y="101" width="310" height="160" as="geometry" />
        </mxCell>
        <mxCell id="Pc1lhnJoRWsY5sxy8zzw-29" value="drug data" style="whiteSpace=wrap;html=1;" vertex="1" parent="Pc1lhnJoRWsY5sxy8zzw-28">
          <mxGeometry x="40" y="60" width="100" height="40" as="geometry" />
        </mxCell>
        <mxCell id="Pc1lhnJoRWsY5sxy8zzw-30" value="sencitive data" style="whiteSpace=wrap;html=1;" vertex="1" parent="Pc1lhnJoRWsY5sxy8zzw-28">
          <mxGeometry x="190" y="20" width="100" height="40" as="geometry" />
        </mxCell>
        <mxCell id="Pc1lhnJoRWsY5sxy8zzw-31" value="" style="edgeStyle=elbowEdgeStyle;elbow=horizontal;html=1;rounded=1;curved=0;sourcePerimeterSpacing=0;targetPerimeterSpacing=0;startSize=6;endSize=6;" edge="1" parent="Pc1lhnJoRWsY5sxy8zzw-28" source="Pc1lhnJoRWsY5sxy8zzw-29" target="Pc1lhnJoRWsY5sxy8zzw-30">
          <mxGeometry relative="1" as="geometry" />
        </mxCell>
        <mxCell id="Pc1lhnJoRWsY5sxy8zzw-32" value="non sencitive&amp;nbsp;" style="whiteSpace=wrap;html=1;" vertex="1" parent="Pc1lhnJoRWsY5sxy8zzw-28">
          <mxGeometry x="190" y="100" width="100" height="40" as="geometry" />
        </mxCell>
        <mxCell id="Pc1lhnJoRWsY5sxy8zzw-33" value="" style="edgeStyle=elbowEdgeStyle;elbow=horizontal;html=1;rounded=1;curved=0;sourcePerimeterSpacing=0;targetPerimeterSpacing=0;startSize=6;endSize=6;" edge="1" parent="Pc1lhnJoRWsY5sxy8zzw-28" source="Pc1lhnJoRWsY5sxy8zzw-29" target="Pc1lhnJoRWsY5sxy8zzw-32">
          <mxGeometry relative="1" as="geometry" />
        </mxCell>
        <mxCell id="Pc1lhnJoRWsY5sxy8zzw-52" style="edgeStyle=orthogonalEdgeStyle;rounded=0;orthogonalLoop=1;jettySize=auto;html=1;" edge="1" parent="1" source="Pc1lhnJoRWsY5sxy8zzw-77" target="UEzPUAAOIrF-is8g5C7q-116">
          <mxGeometry relative="1" as="geometry">
            <Array as="points">
              <mxPoint x="1050" y="140" />
              <mxPoint x="1050" y="330" />
              <mxPoint x="1049" y="330" />
              <mxPoint x="1049" y="414" />
            </Array>
          </mxGeometry>
        </mxCell>
        <mxCell id="Pc1lhnJoRWsY5sxy8zzw-34" value="Icon" style="icon;html=1;image=img/clipart/Gear_128x128.png" vertex="1" parent="1">
          <mxGeometry x="780" y="111" width="70" height="60" as="geometry" />
        </mxCell>
        <mxCell id="Pc1lhnJoRWsY5sxy8zzw-48" style="edgeStyle=orthogonalEdgeStyle;rounded=0;orthogonalLoop=1;jettySize=auto;html=1;entryX=0;entryY=0.5;entryDx=0;entryDy=0;" edge="1" parent="1" source="Pc1lhnJoRWsY5sxy8zzw-30" target="Pc1lhnJoRWsY5sxy8zzw-34">
          <mxGeometry relative="1" as="geometry" />
        </mxCell>
        <mxCell id="Pc1lhnJoRWsY5sxy8zzw-51" style="edgeStyle=orthogonalEdgeStyle;rounded=0;orthogonalLoop=1;jettySize=auto;html=1;" edge="1" parent="1" source="Pc1lhnJoRWsY5sxy8zzw-32" target="UEzPUAAOIrF-is8g5C7q-116">
          <mxGeometry relative="1" as="geometry" />
        </mxCell>
        <mxCell id="Pc1lhnJoRWsY5sxy8zzw-86" style="edgeStyle=orthogonalEdgeStyle;rounded=0;orthogonalLoop=1;jettySize=auto;html=1;" edge="1" parent="1" source="Pc1lhnJoRWsY5sxy8zzw-53" target="Pc1lhnJoRWsY5sxy8zzw-84">
          <mxGeometry relative="1" as="geometry" />
        </mxCell>
        <mxCell id="Pc1lhnJoRWsY5sxy8zzw-90" style="edgeStyle=orthogonalEdgeStyle;rounded=0;orthogonalLoop=1;jettySize=auto;html=1;" edge="1" parent="1" source="Pc1lhnJoRWsY5sxy8zzw-53" target="Pc1lhnJoRWsY5sxy8zzw-83">
          <mxGeometry relative="1" as="geometry" />
        </mxCell>
        <mxCell id="Pc1lhnJoRWsY5sxy8zzw-53" value="" style="shape=actor;whiteSpace=wrap;html=1;" vertex="1" parent="1">
          <mxGeometry x="280" y="440" width="40" height="60" as="geometry" />
        </mxCell>
        <mxCell id="Pc1lhnJoRWsY5sxy8zzw-81" style="edgeStyle=orthogonalEdgeStyle;rounded=0;orthogonalLoop=1;jettySize=auto;html=1;entryX=0;entryY=0.5;entryDx=0;entryDy=0;" edge="1" parent="1" source="Pc1lhnJoRWsY5sxy8zzw-78" target="Pc1lhnJoRWsY5sxy8zzw-28">
          <mxGeometry relative="1" as="geometry" />
        </mxCell>
        <mxCell id="Pc1lhnJoRWsY5sxy8zzw-78" value="" style="sketch=0;outlineConnect=0;fontColor=#232F3E;gradientColor=none;fillColor=#232F3D;strokeColor=none;dashed=0;verticalLabelPosition=bottom;verticalAlign=top;align=center;html=1;fontSize=12;fontStyle=0;aspect=fixed;pointerEvents=1;shape=mxgraph.aws4.documents3;" vertex="1" parent="1">
          <mxGeometry x="263" y="93" width="57" height="78" as="geometry" />
        </mxCell>
        <mxCell id="Pc1lhnJoRWsY5sxy8zzw-82" value="" style="edgeStyle=orthogonalEdgeStyle;rounded=0;orthogonalLoop=1;jettySize=auto;html=1;" edge="1" parent="1" source="Pc1lhnJoRWsY5sxy8zzw-34" target="Pc1lhnJoRWsY5sxy8zzw-77">
          <mxGeometry relative="1" as="geometry">
            <mxPoint x="850" y="141" as="sourcePoint" />
            <mxPoint x="999" y="336" as="targetPoint" />
          </mxGeometry>
        </mxCell>
        <mxCell id="Pc1lhnJoRWsY5sxy8zzw-77" value="" style="sketch=0;outlineConnect=0;fontColor=#232F3E;gradientColor=none;fillColor=#232F3D;strokeColor=none;dashed=0;verticalLabelPosition=bottom;verticalAlign=top;align=center;html=1;fontSize=12;fontStyle=0;aspect=fixed;pointerEvents=1;shape=mxgraph.aws4.documents2;" vertex="1" parent="1">
          <mxGeometry x="920" y="102" width="67" height="78" as="geometry" />
        </mxCell>
        <mxCell id="Pc1lhnJoRWsY5sxy8zzw-89" style="edgeStyle=orthogonalEdgeStyle;rounded=0;orthogonalLoop=1;jettySize=auto;html=1;" edge="1" parent="1" source="Pc1lhnJoRWsY5sxy8zzw-83" target="Pc1lhnJoRWsY5sxy8zzw-85">
          <mxGeometry relative="1" as="geometry" />
        </mxCell>
        <mxCell id="Pc1lhnJoRWsY5sxy8zzw-83" value="" style="sketch=0;outlineConnect=0;fontColor=#232F3E;gradientColor=none;fillColor=#232F3D;strokeColor=none;dashed=0;verticalLabelPosition=bottom;verticalAlign=top;align=center;html=1;fontSize=12;fontStyle=0;aspect=fixed;pointerEvents=1;shape=mxgraph.aws4.saml_token;" vertex="1" parent="1">
          <mxGeometry x="526" y="500" width="78" height="78" as="geometry" />
        </mxCell>
        <mxCell id="Pc1lhnJoRWsY5sxy8zzw-87" style="edgeStyle=orthogonalEdgeStyle;rounded=0;orthogonalLoop=1;jettySize=auto;html=1;" edge="1" parent="1" source="Pc1lhnJoRWsY5sxy8zzw-84" target="UEzPUAAOIrF-is8g5C7q-116">
          <mxGeometry relative="1" as="geometry" />
        </mxCell>
        <mxCell id="Pc1lhnJoRWsY5sxy8zzw-84" value="" style="sketch=0;outlineConnect=0;fontColor=#232F3E;gradientColor=none;fillColor=#232F3D;strokeColor=none;dashed=0;verticalLabelPosition=bottom;verticalAlign=top;align=center;html=1;fontSize=12;fontStyle=0;aspect=fixed;pointerEvents=1;shape=mxgraph.aws4.documents3;" vertex="1" parent="1">
          <mxGeometry x="690" y="375" width="57" height="78" as="geometry" />
        </mxCell>
        <mxCell id="Pc1lhnJoRWsY5sxy8zzw-88" style="edgeStyle=orthogonalEdgeStyle;rounded=0;orthogonalLoop=1;jettySize=auto;html=1;" edge="1" parent="1" source="Pc1lhnJoRWsY5sxy8zzw-85" target="UEzPUAAOIrF-is8g5C7q-116">
          <mxGeometry relative="1" as="geometry" />
        </mxCell>
        <mxCell id="Pc1lhnJoRWsY5sxy8zzw-85" value="" style="sketch=0;outlineConnect=0;fontColor=#232F3E;gradientColor=none;fillColor=#232F3D;strokeColor=none;dashed=0;verticalLabelPosition=bottom;verticalAlign=top;align=center;html=1;fontSize=12;fontStyle=0;aspect=fixed;pointerEvents=1;shape=mxgraph.aws4.documents2;" vertex="1" parent="1">
          <mxGeometry x="680" y="500" width="67" height="78" as="geometry" />
        </mxCell>
      </root>
    </mxGraphModel>
  </diagram>
</mxfile>
